<svg xmlns="http://www.w3.org/2000/svg" viewBox="0 0 512 512"><defs><style>.cls-1{fill:#222;}.cls-2{fill:#231f20;}.cls-3{fill:#fff;}</style></defs><title>Logo.001</title><g id="Base_1" data-name="Base 1"><path class="cls-1" d="M311.64,397.18q-.83,0-1.65,0c-12.26-.52-24.64-6.81-26.81-8-1.54,1.46-9.48,8-28.54,8H254c-20.15-.15-34.78-15.65-36.68-17.77a41.66,41.66,0,0,1-9.3,1.13h-1a85.19,85.19,0,0,1-11.23-1.3c-1.51,1.67-11.49,12-30.11,12.91-.56,0-1.1,0-1.65,0-18.71,0-32.6-16.08-33.65-17.33l-35.35-19.9,0-.05a53.85,53.85,0,0,1-13.43-40.18c3.07-39.45,39.81-47.31,43.08-47.94l26.55-43.38c0-.06,1.32-2.59,10.43-8,3.43-2,8.52-3.06,15.14-3.06a79.8,79.8,0,0,1,12.58,1.08c1.34-2.94,11.09-22.25,34.93-23l1.53,0c29.67,0,42.61,27,44.86,32.27l.7-1.06.37.14,22.12,8c2.11.75,6.74,5.06,8.07,6.33,2.11-2.08,12.86-12.44,19.32-13.92a122.84,122.84,0,0,1,24.44-2.85c2,0,3.85.08,5.58.23,8.85.79,15.84,5.32,21,8.63,1.52,1,3,1.93,4.23,2.62,5.61,3.06,13,16.83,13.31,17.42l.06.11v.12c0,17,.65,44.67,2.17,46.24,2,1.45,13.82,17.65,13.73,35.88-.08,17.38-17.55,30.05-19.33,30.84a29.76,29.76,0,0,0-1.91,4.4c-1.83,4.69-4.34,11.11-7.09,13.74-4.2,4-9.61,8.2-17.9,8.55l-.77,0a22.06,22.06,0,0,1-13.2-4.74C343.21,385.39,329.13,397.18,311.64,397.18Z"/><path class="cls-2" d="M225.81,190.88c32.75,0,44.75,32.83,44.75,32.83l1-1.51,22.12,8c2.36.84,8.24,6.56,8.24,6.56s12.45-12.54,19.43-14.13a121.91,121.91,0,0,1,24.33-2.84c1.88,0,3.74.07,5.53.23,11.36,1,19.43,8.16,25,11.19s13.11,17.21,13.11,17.21.09,45,2.36,46.63,13.63,18.08,13.54,35.49-18.05,30.06-19.06,30.4-4.91,14.18-9.11,18.22-9.51,8.07-17.58,8.41l-.75,0a21.81,21.81,0,0,1-13.22-4.9s-14.79,14-33.86,14l-1.63,0c-13.46-.57-26.92-8.08-26.92-8.08s-7.41,8.08-28.45,8.08H254c-21.53-.16-36.5-17.83-36.5-17.83A41.21,41.21,0,0,1,208,380l-.94,0a84,84,0,0,1-11.44-1.35s-9.76,11.95-30,13c-.54,0-1.08,0-1.62,0-19.35,0-33.33-17.22-33.33-17.22L95.36,354.5a52.81,52.81,0,0,1-13.29-39.78C85.28,273.55,125,267.2,125,267.2l26.67-43.57s1.17-2.44,10.26-7.83c3.93-2.32,9.65-3,14.88-3A78.29,78.29,0,0,1,189.64,214s9-22.26,34.65-23l1.52,0m0-1h0l-1.55,0A39.24,39.24,0,0,0,196.63,202a41.73,41.73,0,0,0-7.58,10.8,80.63,80.63,0,0,0-12.28-1c-6.71,0-11.89,1.05-15.39,3.12-8.6,5.1-10.34,7.69-10.62,8.19l-26.42,43.16a59.55,59.55,0,0,0-20.17,8.39c-9.61,6.27-21.41,18.29-23.1,40a54.42,54.42,0,0,0,13.58,40.58l.1.09.11.07,35.21,19.82c1.53,1.82,15.12,17.44,34,17.44.56,0,1.12,0,1.67,0,18.39-.92,28.22-10.6,30.27-12.87A82.18,82.18,0,0,0,207,381l1,0a42.37,42.37,0,0,0,9.14-1.08c2.61,2.89,16.82,17.56,36.84,17.71h.66c18.28,0,26.49-6,28.62-7.86,2.89,1.52,14.68,7.35,26.71,7.86.55,0,1.11,0,1.67,0,17.22,0,30.8-11,33.9-13.68a22.65,22.65,0,0,0,13.18,4.58l.79,0c8.45-.35,14-4.59,18.23-8.69,2.82-2.71,5.36-9.19,7.21-13.92a38.86,38.86,0,0,1,1.78-4.2c2.57-1.41,19.41-14.06,19.49-31.21.09-17.39-10.94-33.91-13.86-36.24-1.27-2.26-2-25.25-2-45.89v-.25l-.12-.22c-.32-.59-7.77-14.49-13.52-17.62-1.24-.68-2.68-1.61-4.19-2.59-5.15-3.34-12.2-7.92-21.18-8.72-1.74-.15-3.63-.23-5.62-.23a123.71,123.71,0,0,0-24.55,2.86c-6.29,1.44-16.45,11-19.22,13.71-1.7-1.61-5.83-5.37-7.89-6.1l-22.12-8-.74-.27-.4.61a62.08,62.08,0,0,0-9.54-15c-6.61-7.64-18.12-16.76-35.42-16.76Z"/></g><g id="Base_2" data-name="Base 2"><path class="cls-3" d="M147.46,275.73a25,25,0,1,1,25-25A25,25,0,0,1,147.46,275.73Z"/><path class="cls-2" d="M147.46,226.27A24.48,24.48,0,1,1,123,250.75a24.48,24.48,0,0,1,24.48-24.48m0-1a25.48,25.48,0,1,0,25.48,25.48,25.51,25.51,0,0,0-25.48-25.48Z"/><path class="cls-3" d="M216.07,267.06A19.92,19.92,0,1,1,236,247.14,19.94,19.94,0,0,1,216.07,267.06Z"/><path class="cls-2" d="M216.07,227.72a19.42,19.42,0,1,1-19.42,19.42,19.42,19.42,0,0,1,19.42-19.42m0-1a20.42,20.42,0,1,0,20.42,20.42,20.44,20.44,0,0,0-20.42-20.42Z"/><path class="cls-3" d="M236.58,381.44a19.92,19.92,0,1,1,19.92-19.92A19.94,19.94,0,0,1,236.58,381.44Z"/><path class="cls-2" d="M236.58,342.1a19.42,19.42,0,1,1-19.42,19.42,19.42,19.42,0,0,1,19.42-19.42m0-1A20.42,20.42,0,1,0,257,361.52a20.44,20.44,0,0,0-20.42-20.42Z"/><path class="cls-3" d="M121.46,376.09a24.54,24.54,0,1,1,7.74-47.81l.47.15-.15.47a18.92,18.92,0,0,0,15.93,24.27l.49.05-.05.49A24.67,24.67,0,0,1,121.46,376.09Z"/><path class="cls-2" d="M121.46,327.52a24.14,24.14,0,0,1,7.59,1.23,19.39,19.39,0,0,0,16.35,24.91,24,24,0,1,1-23.94-26.14m0-1a25,25,0,1,0,24.93,27.23l.09-1-1-.11a18.4,18.4,0,0,1-16.3-18.29A18.66,18.66,0,0,1,130,329l.28-.93-.92-.31a24.94,24.94,0,0,0-7.9-1.28Z"/><path class="cls-3" d="M148.9,353.81a19.92,19.92,0,1,1,19.92-19.92A19.95,19.95,0,0,1,148.9,353.81Z"/><path class="cls-2" d="M148.9,314.47a19.42,19.42,0,1,1-19.42,19.42,19.43,19.43,0,0,1,19.42-19.42m0-1a20.42,20.42,0,1,0,20.42,20.42,20.44,20.44,0,0,0-20.42-20.42Z"/><circle class="cls-3" cx="251.45" cy="338.57" r="5.81"/><path class="cls-2" d="M251.45,333.26a5.31,5.31,0,1,1-5.31,5.31,5.31,5.31,0,0,1,5.31-5.31m0-1a6.31,6.31,0,1,0,6.31,6.31,6.32,6.32,0,0,0-6.31-6.31Z"/><path class="cls-3" d="M343.59,339.51a9.72,9.72,0,0,1-7.12-16.33l.28-.29.34.2a35,35,0,0,0,15.64,4.83l.4,0,.06.4a9.65,9.65,0,0,1-9.6,11.17Z"/><path class="cls-2" d="M336.84,323.52a35.69,35.69,0,0,0,15.86,4.9,10.26,10.26,0,0,1,.11,1.37,9.22,9.22,0,1,1-16-6.27m-.18-1.27-.55.59a10.22,10.22,0,1,0,17.7,7,10.65,10.65,0,0,0-.12-1.52l-.12-.8-.81-.05a34.37,34.37,0,0,1-15.41-4.76l-.69-.41Z"/><path class="cls-3" d="M396.28,295.16a23.66,23.66,0,0,1-6-.78l-.37-.1v-.38a37.7,37.7,0,0,0-15.67-29.75l-.31-.22.13-.36a23.64,23.64,0,1,1,22.27,31.59Z"/><path class="cls-2" d="M396.28,248.38a23.14,23.14,0,1,1-5.92,45.51,37.94,37.94,0,0,0-15.88-30.15,23.16,23.16,0,0,1,21.8-15.36m0-1a24.19,24.19,0,0,0-22.74,16l-.25.71.61.43a37.23,37.23,0,0,1,15.46,29.36l0,.76.73.19a24.14,24.14,0,1,0,6.17-47.48Z"/><path class="cls-3" d="M344.34,259.46a9,9,0,0,1-.15-1.67A9.91,9.91,0,1,1,363.93,259l-.06.57-.56-.14a32.27,32.27,0,0,0-8.35-1.09,32.78,32.78,0,0,0-10,1.56l-.55.18Z"/><path class="cls-2" d="M354.09,248.38a9.41,9.41,0,0,1,9.41,9.41,8,8,0,0,1-.07,1.1,33.28,33.28,0,0,0-8.47-1.1,32.9,32.9,0,0,0-10.13,1.59,9.31,9.31,0,0,1-.14-1.59,9.4,9.4,0,0,1,9.4-9.41m0-1a10.41,10.41,0,0,0-10.4,10.41,11.11,11.11,0,0,0,.15,1.76l.2,1.13,1.1-.35a32.09,32.09,0,0,1,18-.47l1.11.3.14-1.15a10.7,10.7,0,0,0,.07-1.22,10.42,10.42,0,0,0-10.41-10.41Z"/><path class="cls-3" d="M355,327.83a34.56,34.56,0,1,1,34.55-34.56A34.61,34.61,0,0,1,355,327.83Z"/><path class="cls-2" d="M355,259.22a34.06,34.06,0,1,1-34.06,34,34,34,0,0,1,34.06-34m0-1a35.06,35.06,0,1,0,35.05,35,35.09,35.09,0,0,0-35.05-35Z"/><path class="cls-3" d="M239.37,297.87a15.58,15.58,0,1,1,15.57-15.57A15.59,15.59,0,0,1,239.37,297.87Z"/><path class="cls-2" d="M239.37,267.22a15.08,15.08,0,1,1-15.08,15.08,15.08,15.08,0,0,1,15.08-15.08m0-1a16.08,16.08,0,1,0,16.07,16.08,16.1,16.1,0,0,0-16.07-16.08Z"/><circle class="cls-3" cx="369.76" cy="361.52" r="16.16"/><path class="cls-2" d="M369.76,345.86a15.66,15.66,0,1,1-15.67,15.66,15.66,15.66,0,0,1,15.67-15.66m0-1a16.66,16.66,0,1,0,16.66,16.66,16.69,16.69,0,0,0-16.66-16.66Z"/><path class="cls-3" d="M336.91,232.7a12.86,12.86,0,1,1,12.85-12.86A12.88,12.88,0,0,1,336.91,232.7Z"/><path class="cls-2" d="M336.91,207.49a12.36,12.36,0,1,1-12.36,12.35,12.35,12.35,0,0,1,12.36-12.35m0-1a13.36,13.36,0,1,0,13.35,13.35,13.37,13.37,0,0,0-13.35-13.35Z"/><path class="cls-3" d="M280,236.4a10.14,10.14,0,1,1,10.13-10.13A10.15,10.15,0,0,1,280,236.4Z"/><path class="cls-2" d="M280,216.63a9.64,9.64,0,1,1-9.64,9.64,9.64,9.64,0,0,1,9.64-9.64m0-1a10.64,10.64,0,1,0,10.63,10.64A10.65,10.65,0,0,0,280,215.63Z"/><path class="cls-3" d="M372.3,228.84a7.17,7.17,0,1,1,7.17-7.17A7.18,7.18,0,0,1,372.3,228.84Z"/><path class="cls-2" d="M372.3,215a6.67,6.67,0,1,1-6.67,6.66A6.67,6.67,0,0,1,372.3,215m0-1a7.67,7.67,0,1,0,7.67,7.66A7.67,7.67,0,0,0,372.3,214Z"/><path class="cls-3" d="M270.38,279a14.37,14.37,0,1,1,14.28-16l0,.24-.17.17A26.66,26.66,0,0,0,277.17,277l0,.24-.22.11A14.29,14.29,0,0,1,270.38,279Z"/><path class="cls-2" d="M270.38,250.72A13.87,13.87,0,0,1,284.16,263a27.22,27.22,0,0,0-7.48,13.93,13.87,13.87,0,1,1-6.3-26.22m0-1a14.88,14.88,0,0,0,0,29.75,14.63,14.63,0,0,0,6.76-1.64l.43-.22.09-.47a26.08,26.08,0,0,1,7.21-13.42l.34-.35,0-.48a14.86,14.86,0,0,0-14.78-13.17Z"/><path class="cls-3" d="M303.4,310a27.78,27.78,0,0,1-27.75-27.74,28.63,28.63,0,0,1,.54-5.46l.05-.23.22-.11a13.35,13.35,0,0,0,7.3-11.91,14.32,14.32,0,0,0-.09-1.53l0-.24.17-.17a27.75,27.75,0,0,1,44.5,7.44l.14.29-.2.25a35.75,35.75,0,0,0-6.89,32.42l.08.32-.24.2A27.77,27.77,0,0,1,303.4,310Z"/><path class="cls-2" d="M303.4,255.06a27.23,27.23,0,0,1,24.46,15.25,36.26,36.26,0,0,0-7,32.88,27.25,27.25,0,0,1-44.73-20.89,27.76,27.76,0,0,1,.53-5.36,13.85,13.85,0,0,0,7.58-12.35,13.67,13.67,0,0,0-.1-1.58,27.14,27.14,0,0,1,19.24-7.95m0-1a28,28,0,0,0-19.94,8.24l-.35.34.06.48a13.13,13.13,0,0,1,.09,1.47,12.84,12.84,0,0,1-7,11.46l-.43.22-.1.48a28.69,28.69,0,0,0-.55,5.55A28.25,28.25,0,0,0,321.52,304l.49-.42-.17-.62a35.28,35.28,0,0,1,6.79-32l.41-.5-.28-.58a28.08,28.08,0,0,0-25.36-15.81Z"/><path class="cls-3" d="M303.4,310a27.74,27.74,0,1,1,24.91-40l.14.29-.2.25a35.75,35.75,0,0,0-6.89,32.42l.08.31-.24.21A27.79,27.79,0,0,1,303.4,310Z"/><path class="cls-2" d="M303.4,255.06a27.23,27.23,0,0,1,24.46,15.25,36.26,36.26,0,0,0-7,32.88,27.24,27.24,0,1,1-17.48-48.13m0-1A28.24,28.24,0,1,0,321.52,304l.49-.42-.17-.62a35.28,35.28,0,0,1,6.79-32l.41-.5-.28-.58a28.08,28.08,0,0,0-25.36-15.81Z"/></g><g id="Base_3" data-name="Base 3"><path class="cls-1" d="M101.58,267.86a7.4,7.4,0,1,1,7.4-7.39A7.4,7.4,0,0,1,101.58,267.86Z"/><path class="cls-2" d="M101.58,253.57a6.9,6.9,0,1,1-6.9,6.9,6.9,6.9,0,0,1,6.9-6.9m0-1a7.9,7.9,0,1,0,7.9,7.9,7.9,7.9,0,0,0-7.9-7.9Z"/><path class="cls-1" d="M158.49,213.74a9.64,9.64,0,1,1,9.64-9.64A9.65,9.65,0,0,1,158.49,213.74Z"/><path class="cls-2" d="M158.49,195a9.14,9.14,0,1,1-9.14,9.14,9.14,9.14,0,0,1,9.14-9.14m0-1a10.14,10.14,0,1,0,10.14,10.14A10.15,10.15,0,0,0,158.49,194Z"/><path class="cls-1" d="M224.92,179.29a7.4,7.4,0,1,1,7.39-7.4A7.41,7.41,0,0,1,224.92,179.29Z"/><path class="cls-2" d="M224.92,165a6.9,6.9,0,1,1-6.9,6.9,6.89,6.89,0,0,1,6.9-6.9m0-1a7.9,7.9,0,1,0,7.89,7.9,7.9,7.9,0,0,0-7.89-7.9Z"/><path class="cls-1" d="M296.64,201.29a8.48,8.48,0,1,1,8.48-8.48A8.49,8.49,0,0,1,296.64,201.29Z"/><path class="cls-2" d="M296.64,184.84a8,8,0,1,1-8,8,8,8,0,0,1,8-8m0-1a9,9,0,1,0,9,9,9,9,0,0,0-9-9Z"/><circle class="cls-1" cx="256" cy="139.65" r="12.58"/><path class="cls-2" d="M256,127.57a12.09,12.09,0,1,1-12.08,12.08A12.08,12.08,0,0,1,256,127.57m0-1a13.09,13.09,0,1,0,13.08,13.08A13.1,13.1,0,0,0,256,126.57Z"/></g></svg>